<svg width="449" height="350" viewBox="0 0 449 350" fill="none" xmlns="http://www.w3.org/2000/svg">
<path d="M410.594 164.703V162.312C410.625 160.312 411.469 158.766 413.125 157.672C413.531 157.453 415.172 156.844 418.047 155.844C421.391 154.719 423.062 153.719 423.062 152.844V151.766C423.031 150.641 422.344 150.031 421 149.938V144.172C423.344 144.172 425.312 144.969 426.906 146.562C428.344 148.031 429.062 149.625 429.062 151.344V163.578C429.094 164.516 429.531 165.016 430.375 165.078V170.891C428.469 170.891 426.938 170.391 425.781 169.391C424.562 170.359 422.984 170.859 421.047 170.891V165.125C421.297 165.125 421.531 165.094 421.75 165.031C422.625 164.781 423.062 164.188 423.062 163.25V159.406C422.219 159.906 420.578 160.5 418.141 161.188C417.141 161.438 416.562 161.609 416.406 161.703C416.031 161.891 415.828 162.25 415.797 162.781V163.438C415.797 163.625 415.812 163.812 415.844 164C416.031 164.75 416.922 165.125 418.516 165.125V170.891C416.422 170.891 414.641 170.359 413.172 169.297C411.453 168.047 410.594 166.516 410.594 164.703ZM410.922 150.875C410.953 149.281 411.609 147.828 412.891 146.516C414.516 144.953 416.406 144.172 418.562 144.172V149.938C417.125 149.969 416.391 150.969 416.359 152.938L410.922 150.875Z" fill="url(#paint0_linear_12_94)"/>
<path d="M394.891 150.219V144.172H398.172V137.328H404.453V144.172H407.547V150.266H404.453V162.688C404.516 163.812 405.094 164.391 406.188 164.422H407.547L408.953 170.891H406.141C402.047 170.891 399.547 169.344 398.641 166.25C398.328 165.125 398.172 163.781 398.172 162.219V150.219H394.891Z" fill="url(#paint1_linear_12_94)"/>
<path d="M374.031 171.266V137.328H379.891V145.297C380.516 145.078 381.359 144.969 382.422 144.969V150.734C381.328 150.734 380.531 151.234 380.031 152.234C379.969 152.359 379.938 152.453 379.938 152.516V171.266H374.031ZM384.719 150.734V144.969C387.75 144.969 390.031 146.047 391.562 148.203C392.406 149.359 392.828 150.641 392.828 152.047V171.266H386.969V152.516C386.969 152.078 386.719 151.656 386.219 151.25C385.812 150.906 385.312 150.734 384.719 150.734Z" fill="url(#paint2_linear_12_94)"/>
<path d="M351.109 163.625V151.344C351.141 149.812 351.844 148.312 353.219 146.844C354.906 145.094 356.969 144.203 359.406 144.172V150.078C358.5 150.078 357.875 150.469 357.531 151.25C357.438 151.438 357.391 151.609 357.391 151.766V154.109H364.375V151.812C364.344 150.656 363.531 150.078 361.938 150.078V144.172C364.219 144.172 366.219 144.953 367.938 146.516C369.438 147.891 370.203 149.484 370.234 151.297V160.156H357.391V163.625C357.609 164.531 358.297 165.031 359.453 165.125V170.891C356.516 170.891 354.188 169.688 352.469 167.281C351.562 166 351.109 164.781 351.109 163.625ZM361.938 170.891V165.172C363.625 165.141 364.703 164.344 365.172 162.781L370.281 164.703C369.812 166.703 368.625 168.312 366.719 169.531C365.25 170.438 363.656 170.891 361.938 170.891Z" fill="url(#paint3_linear_12_94)"/>
<path d="M318.672 170.891V150.078H319.094L325.281 164.938V170.891H318.672ZM318.672 142.391V138.078H323.828L332.781 159.781L337.75 148.578H338.219V163.812L335.078 170.891H330.531L318.672 142.391ZM340.75 170.891V138.078H347.359V170.891H340.75Z" fill="url(#paint4_linear_12_94)"/>
<path d="M285.719 171.266V137.328H291.578V145.297C292.203 145.078 293.047 144.969 294.109 144.969V150.734C293.016 150.734 292.219 151.234 291.719 152.234C291.656 152.359 291.625 152.453 291.625 152.516V171.266H285.719ZM296.406 150.734V144.969C299.438 144.969 301.719 146.047 303.25 148.203C304.094 149.359 304.516 150.641 304.516 152.047V171.266H298.656V152.516C298.656 152.078 298.406 151.656 297.906 151.25C297.5 150.906 297 150.734 296.406 150.734Z" fill="url(#paint5_linear_12_94)"/>
<path d="M263.312 179.797L264.766 174.031H274.047C275.047 174 275.688 173.547 275.969 172.672C276 172.609 276.016 172.562 276.016 172.531V170.328C275.359 170.453 274.656 170.516 273.906 170.516V164.703C275.25 164.641 275.953 164.125 276.016 163.156V151.203C276.016 150.766 275.734 150.375 275.172 150.031C274.797 149.812 274.375 149.703 273.906 149.703V143.844C274.656 143.844 275.359 143.938 276.016 144.125V143.844H282.016V172.531C282.016 173.906 281.406 175.328 280.188 176.797C278.562 178.766 276.547 179.766 274.141 179.797H263.312ZM263.781 163.297V150.969C263.812 149.469 264.484 148 265.797 146.562C267.422 144.781 269.453 143.875 271.891 143.844V149.703C270.766 149.703 270.047 150.109 269.734 150.922C269.703 151.016 269.688 151.078 269.688 151.109V163.25C269.688 163.969 270.141 164.422 271.047 164.609C271.297 164.672 271.578 164.703 271.891 164.703V170.516C268.953 170.516 266.672 169.281 265.047 166.812C264.203 165.562 263.781 164.391 263.781 163.297Z" fill="url(#paint6_linear_12_94)"/>
<path d="M241.328 170.891V151.438C241.328 149.875 242.031 148.344 243.438 146.844C245.156 145.062 247.297 144.156 249.859 144.125V150.359C248.547 150.516 247.828 151.125 247.703 152.188V170.891H241.328ZM252.016 150.359V144.125C255.047 144.125 257.438 145.328 259.188 147.734C260.125 149.047 260.594 150.281 260.594 151.438V170.891H254.219V152.188C254.219 151.156 253.641 150.562 252.484 150.406C252.328 150.375 252.172 150.359 252.016 150.359Z" fill="url(#paint7_linear_12_94)"/>
<path d="M230.406 140.375C230.406 139.094 230.984 138.125 232.141 137.469C232.672 137.156 233.234 137 233.828 137C235.141 137 236.125 137.578 236.781 138.734C237.062 139.266 237.203 139.812 237.203 140.375C237.203 141.688 236.625 142.672 235.469 143.328C234.938 143.609 234.391 143.75 233.828 143.75C232.484 143.75 231.484 143.156 230.828 141.969C230.547 141.469 230.406 140.938 230.406 140.375ZM230.734 170.891V145.578H237.016V170.891H230.734Z" fill="url(#paint8_linear_12_94)"/>
<path d="M206.453 163.484L212.406 161.375C212.406 162.156 212.625 162.844 213.062 163.438C213.5 164.031 213.938 164.422 214.375 164.609L215.031 164.938V171.031C212.375 171.031 210.109 169.875 208.234 167.562C207.078 166.094 206.484 164.734 206.453 163.484ZM206.828 147.078C206.828 143.641 208.297 141.062 211.234 139.344C212.578 138.531 213.844 138.109 215.031 138.078V144.266C214.25 144.484 213.672 145.047 213.297 145.953C213.172 146.234 213.109 146.531 213.109 146.844C213.109 148.125 214.062 149.219 215.969 150.125C216.375 150.312 217.031 150.594 217.938 150.969C219.438 151.562 220.5 152.047 221.125 152.422C223.656 153.922 225.344 155.453 226.188 157.016C226.812 158.234 227.125 159.594 227.125 161.094C227.125 163.938 226.047 166.375 223.891 168.406C222.047 170.156 219.953 171.031 217.609 171.031V164.938C218.828 164.781 219.688 164.141 220.188 163.016C220.406 162.516 220.516 161.969 220.516 161.375C220.516 159.781 219.328 158.469 216.953 157.438C216.516 157.25 215.828 156.984 214.891 156.641C213.797 156.266 213.031 155.969 212.594 155.75C209.906 154.469 208.188 152.812 207.438 150.781C207.031 149.688 206.828 148.453 206.828 147.078ZM217.609 144.266V138.078C220.234 138.078 222.438 139.188 224.219 141.406C225.25 142.719 225.781 143.906 225.812 144.969L219.719 146.984C219.719 145.672 219.078 144.781 217.797 144.312C217.672 144.281 217.609 144.266 217.609 144.266Z" fill="url(#paint9_linear_12_94)"/>
<path d="M180.203 150.219V144.172H183.484V137.328H189.766V144.172H192.859V150.266H189.766V162.688C189.828 163.812 190.406 164.391 191.5 164.422H192.859L194.266 170.891H191.453C187.359 170.891 184.859 169.344 183.953 166.25C183.641 165.125 183.484 163.781 183.484 162.219V150.219H180.203Z" fill="url(#paint10_linear_12_94)"/>
<path d="M158.594 163.625V151.344C158.625 149.812 159.328 148.312 160.703 146.844C162.391 145.094 164.453 144.203 166.891 144.172V150.078C165.984 150.078 165.359 150.469 165.016 151.25C164.922 151.438 164.875 151.609 164.875 151.766V154.109H171.859V151.812C171.828 150.656 171.016 150.078 169.422 150.078V144.172C171.703 144.172 173.703 144.953 175.422 146.516C176.922 147.891 177.688 149.484 177.719 151.297V160.156H164.875V163.625C165.094 164.531 165.781 165.031 166.938 165.125V170.891C164 170.891 161.672 169.688 159.953 167.281C159.047 166 158.594 164.781 158.594 163.625ZM169.422 170.891V165.172C171.109 165.141 172.188 164.344 172.656 162.781L177.766 164.703C177.297 166.703 176.109 168.312 174.203 169.531C172.734 170.438 171.141 170.891 169.422 170.891Z" fill="url(#paint11_linear_12_94)"/>
<path d="M135.859 163.625V151.344C135.891 149.812 136.594 148.312 137.969 146.844C139.656 145.094 141.719 144.203 144.156 144.172V150.078C143.25 150.078 142.625 150.469 142.281 151.25C142.188 151.438 142.141 151.609 142.141 151.766V154.109H149.125V151.812C149.094 150.656 148.281 150.078 146.688 150.078V144.172C148.969 144.172 150.969 144.953 152.688 146.516C154.188 147.891 154.953 149.484 154.984 151.297V160.156H142.141V163.625C142.359 164.531 143.047 165.031 144.203 165.125V170.891C141.266 170.891 138.938 169.688 137.219 167.281C136.312 166 135.859 164.781 135.859 163.625ZM146.688 170.891V165.172C148.375 165.141 149.453 164.344 149.922 162.781L155.031 164.703C154.562 166.703 153.375 168.312 151.469 169.531C150 170.438 148.406 170.891 146.688 170.891Z" fill="url(#paint12_linear_12_94)"/>
<path d="M119.125 170.891V144.172H125.5V147.125C126.594 145.719 128.078 144.75 129.953 144.219C130.609 144.031 131.266 143.938 131.922 143.938H133.609L132.156 150.219C130.188 150.25 128.484 151.109 127.047 152.797C126.016 154.016 125.5 155.281 125.5 156.594V170.891H119.125Z" fill="url(#paint13_linear_12_94)"/>
<path d="M105.391 170.891V164.797H106.984C108.016 164.734 108.641 164.312 108.859 163.531V151.531C108.859 151.125 108.609 150.781 108.109 150.5C107.766 150.344 107.391 150.266 106.984 150.266H105.391V144.172H106.984C109.922 144.172 112.203 145.422 113.828 147.922C114.641 149.203 115.047 150.375 115.047 151.438V163.625C115.047 165.062 114.422 166.531 113.172 168.031C111.516 169.906 109.453 170.859 106.984 170.891H105.391ZM96.4375 180.219V144.172H103.047V180.219H96.4375Z" fill="url(#paint14_linear_12_94)"/>
<path d="M73.5625 170.891V151.438C73.5625 149.875 74.2656 148.344 75.6719 146.844C77.3906 145.062 79.5312 144.156 82.0938 144.125V150.359C80.7812 150.516 80.0625 151.125 79.9375 152.188V170.891H73.5625ZM84.25 150.359V144.125C87.2812 144.125 89.6719 145.328 91.4219 147.734C92.3594 149.047 92.8281 150.281 92.8281 151.438V170.891H86.4531V152.188C86.4531 151.156 85.875 150.562 84.7188 150.406C84.5625 150.375 84.4062 150.359 84.25 150.359Z" fill="url(#paint15_linear_12_94)"/>
<path d="M50.8281 164.703V162.312C50.8594 160.312 51.7031 158.766 53.3594 157.672C53.7656 157.453 55.4062 156.844 58.2812 155.844C61.625 154.719 63.2969 153.719 63.2969 152.844V151.766C63.2656 150.641 62.5781 150.031 61.2344 149.938V144.172C63.5781 144.172 65.5469 144.969 67.1406 146.562C68.5781 148.031 69.2969 149.625 69.2969 151.344V163.578C69.3281 164.516 69.7656 165.016 70.6094 165.078V170.891C68.7031 170.891 67.1719 170.391 66.0156 169.391C64.7969 170.359 63.2188 170.859 61.2812 170.891V165.125C61.5312 165.125 61.7656 165.094 61.9844 165.031C62.8594 164.781 63.2969 164.188 63.2969 163.25V159.406C62.4531 159.906 60.8125 160.5 58.375 161.188C57.375 161.438 56.7969 161.609 56.6406 161.703C56.2656 161.891 56.0625 162.25 56.0312 162.781V163.438C56.0312 163.625 56.0469 163.812 56.0781 164C56.2656 164.75 57.1562 165.125 58.75 165.125V170.891C56.6562 170.891 54.875 170.359 53.4062 169.297C51.6875 168.047 50.8281 166.516 50.8281 164.703ZM51.1562 150.875C51.1875 149.281 51.8438 147.828 53.125 146.516C54.75 144.953 56.6406 144.172 58.7969 144.172V149.938C57.3594 149.969 56.625 150.969 56.5938 152.938L51.1562 150.875Z" fill="url(#paint16_linear_12_94)"/>
<path d="M19 170.891V150.078H19.4219L25.6094 164.938V170.891H19ZM19 142.391V138.078H24.1562L33.1094 159.781L38.0781 148.578H38.5469V163.812L35.4062 170.891H30.8594L19 142.391ZM41.0781 170.891V138.078H47.6875V170.891H41.0781Z" fill="url(#paint17_linear_12_94)"/>
<path d="M360.047 210.763C360.607 210.811 361.575 210.835 362.951 210.835C364.327 210.835 365.439 210.763 366.287 210.619C366.415 211.035 366.479 211.443 366.479 211.843C366.479 212.227 366.447 212.563 366.383 212.851C366.079 212.771 365.439 212.691 364.463 212.611C363.487 212.547 362.391 212.515 361.175 212.515C359.959 212.515 358.815 212.571 357.743 212.683C357.967 210.475 358.079 207.795 358.079 204.643C358.079 201.491 357.927 198.971 357.623 197.083C358.695 197.195 359.847 197.251 361.079 197.251C362.311 197.251 363.407 197.219 364.367 197.155C365.343 197.075 365.975 196.995 366.263 196.915C366.327 197.203 366.359 197.523 366.359 197.875C366.359 198.227 366.295 198.611 366.167 199.027C365.319 198.883 364.223 198.811 362.879 198.811C361.535 198.811 360.583 198.835 360.023 198.883C359.927 199.795 359.879 201.443 359.879 203.827C360.215 203.843 361.023 203.851 362.303 203.851C363.583 203.851 364.623 203.763 365.423 203.587C365.503 204.099 365.543 204.523 365.543 204.859C365.543 205.179 365.535 205.443 365.519 205.651C364.767 205.523 363.815 205.459 362.663 205.459C361.511 205.459 360.583 205.475 359.879 205.507C359.879 207.603 359.935 209.355 360.047 210.763Z" fill="white"/>
<path d="M354.178 211.267C354.178 211.747 354.034 212.147 353.746 212.467C353.458 212.787 353.018 212.947 352.426 212.947C351.514 212.947 351.058 212.483 351.058 211.555C351.058 210.403 351.642 209.827 352.81 209.827C353.722 209.827 354.178 210.307 354.178 211.267Z" fill="white"/>
<path d="M344.926 208.315C344.142 208.267 343.158 208.243 341.974 208.243C340.806 208.243 339.814 208.275 338.998 208.339C338.518 210.323 338.166 211.819 337.942 212.827C337.654 212.859 337.366 212.875 337.078 212.875C336.806 212.875 336.366 212.795 335.758 212.635C338.366 205.691 339.886 200.563 340.318 197.251C340.782 197.091 341.39 197.011 342.142 197.011C342.894 197.011 343.502 197.091 343.966 197.251C344.398 200.563 345.918 205.691 348.526 212.635C347.95 212.795 347.438 212.875 346.99 212.875C346.558 212.875 346.222 212.859 345.982 212.827C345.71 211.627 345.358 210.123 344.926 208.315ZM339.406 206.659C340.142 206.675 340.918 206.683 341.734 206.683C342.55 206.683 343.47 206.667 344.494 206.635C343.774 203.835 342.982 201.195 342.118 198.715H341.974C341.03 201.083 340.174 203.731 339.406 206.659Z" fill="white"/>
<path d="M334.233 211.267C334.233 211.747 334.089 212.147 333.801 212.467C333.513 212.787 333.073 212.947 332.481 212.947C331.569 212.947 331.113 212.483 331.113 211.555C331.113 210.403 331.697 209.827 332.865 209.827C333.777 209.827 334.233 210.307 334.233 211.267Z" fill="white"/>
<path d="M326.612 205.939C326.612 206.899 326.58 207.707 326.516 208.363C326.452 209.003 326.308 209.635 326.084 210.259C325.876 210.883 325.58 211.379 325.196 211.747C324.364 212.547 323.068 212.947 321.308 212.947C319.052 212.947 317.572 212.315 316.868 211.051C316.516 210.379 316.276 209.659 316.148 208.891C316.036 208.123 315.98 207.139 315.98 205.939C315.98 201.683 315.844 198.787 315.572 197.251C315.988 197.091 316.404 197.011 316.82 197.011C317.236 197.011 317.668 197.027 318.116 197.059C317.892 198.835 317.78 201.803 317.78 205.963C317.78 207.755 318.028 209.075 318.524 209.923C319.02 210.755 320.004 211.171 321.476 211.171C322.948 211.171 323.916 210.755 324.38 209.923C324.86 209.075 325.1 207.755 325.1 205.963C325.1 201.691 324.964 198.787 324.692 197.251C325.108 197.091 325.476 197.011 325.796 197.011C326.116 197.011 326.5 197.027 326.948 197.059C326.724 198.835 326.612 201.795 326.612 205.939Z" fill="white"/>
<path d="M305.812 204.571L305.788 206.515C305.788 208.579 305.948 210.531 306.268 212.371C305.74 212.579 305.22 212.683 304.708 212.683C304.212 212.683 303.868 212.667 303.676 212.635C303.868 210.507 303.964 208.635 303.964 207.019C303.964 205.387 303.844 204.251 303.604 203.611C303.38 202.971 302.876 202.651 302.092 202.651C301.308 202.651 300.404 203.163 299.38 204.187C299.348 204.683 299.332 205.435 299.332 206.443C299.332 209.067 299.476 211.067 299.764 212.443C299.188 212.603 298.668 212.683 298.204 212.683C297.74 212.683 297.412 212.667 297.22 212.635C297.46 210.459 297.58 208.555 297.58 206.923C297.58 205.291 297.42 203.515 297.1 201.595C297.74 201.435 298.244 201.355 298.612 201.355C298.98 201.355 299.268 201.387 299.476 201.451V202.675C300.58 201.635 301.684 201.115 302.788 201.115C303.892 201.115 304.668 201.403 305.116 201.979C305.58 202.539 305.812 203.403 305.812 204.571Z" fill="white"/>
<path d="M293.027 206.443C293.027 209.067 293.171 211.067 293.459 212.443C292.883 212.603 292.363 212.683 291.899 212.683C291.435 212.683 291.107 212.667 290.915 212.635C291.155 210.459 291.275 208.467 291.275 206.659C291.275 204.835 291.131 203.147 290.843 201.595C291.387 201.435 291.875 201.355 292.307 201.355C292.739 201.355 293.099 201.387 293.387 201.451C293.147 203.931 293.027 205.595 293.027 206.443ZM293.483 197.875C293.483 198.867 292.971 199.363 291.947 199.363C291.147 199.363 290.747 198.955 290.747 198.139C290.747 197.131 291.259 196.627 292.283 196.627C293.083 196.627 293.483 197.043 293.483 197.875Z" fill="white"/>
<path d="M278.839 202.699C279.207 202.283 279.639 201.939 280.135 201.667C280.631 201.379 281.119 201.235 281.599 201.235C282.079 201.235 282.471 201.499 282.775 202.027C283.079 202.555 283.231 203.195 283.231 203.947C283.231 204.219 283.215 204.451 283.183 204.643C282.895 204.787 282.599 204.859 282.295 204.859C282.007 204.859 281.655 204.827 281.239 204.763C281.271 204.507 281.287 204.339 281.287 204.259C281.287 203.379 280.967 202.939 280.327 202.939C280.151 202.939 279.911 203.051 279.607 203.275C279.303 203.499 279.015 203.779 278.743 204.115C278.711 204.627 278.695 205.403 278.695 206.443C278.695 209.067 278.839 211.067 279.127 212.443C278.551 212.603 278.063 212.683 277.663 212.683C277.263 212.683 276.903 212.667 276.583 212.635C276.823 210.459 276.943 208.555 276.943 206.923C276.943 205.291 276.783 203.515 276.463 201.595C277.103 201.435 277.607 201.355 277.975 201.355C278.343 201.355 278.631 201.387 278.839 201.451V202.699Z" fill="white"/>
<path d="M273.507 206.683C272.307 207.067 271.107 207.259 269.907 207.259C268.723 207.259 267.835 207.219 267.243 207.139C267.243 208.579 267.475 209.627 267.939 210.283C268.371 210.907 269.043 211.219 269.955 211.219C270.867 211.219 271.859 210.723 272.931 209.731C273.395 210.211 273.691 210.843 273.819 211.627C272.523 212.507 271.171 212.947 269.763 212.947C268.083 212.947 266.915 212.403 266.259 211.315C265.603 210.211 265.275 208.755 265.275 206.947C265.275 205.139 265.635 203.715 266.355 202.675C267.091 201.635 268.283 201.115 269.931 201.115C271.083 201.115 272.003 201.467 272.691 202.171C273.395 202.859 273.747 203.683 273.747 204.643C273.763 205.587 273.683 206.267 273.507 206.683ZM269.763 202.459C268.291 202.459 267.459 203.555 267.267 205.747C267.955 205.827 268.731 205.867 269.595 205.867C270.475 205.867 271.163 205.787 271.659 205.627C271.723 205.051 271.755 204.755 271.755 204.739C271.755 204.115 271.595 203.579 271.275 203.131C270.955 202.683 270.451 202.459 269.763 202.459Z" fill="white"/>
<path d="M260.331 203.227C259.323 202.763 258.523 202.531 257.931 202.531C257.355 202.531 256.891 202.683 256.539 202.987C256.203 203.291 255.963 203.707 255.819 204.235C255.579 205.131 255.459 206.155 255.459 207.307C255.459 209.835 256.139 211.099 257.499 211.099C257.979 211.099 258.475 210.963 258.987 210.691C259.499 210.403 259.931 210.059 260.283 209.659C260.315 208.331 260.331 206.187 260.331 203.227ZM262.443 196.267C262.203 198.331 262.083 200.819 262.083 203.731C262.083 206.643 262.107 208.507 262.155 209.323C262.203 210.139 262.323 211.171 262.515 212.419C262.019 212.579 261.539 212.659 261.075 212.659C260.611 212.659 260.307 212.651 260.163 212.635L260.211 211.387C259.107 212.427 257.971 212.947 256.803 212.947C256.115 212.947 255.531 212.763 255.051 212.395C254.587 212.011 254.243 211.507 254.019 210.883C253.619 209.763 253.419 208.531 253.419 207.187C253.419 203.139 254.891 201.115 257.835 201.115C258.635 201.115 259.459 201.307 260.307 201.691C260.275 199.515 260.139 197.771 259.899 196.459C260.251 196.299 260.851 196.219 261.699 196.219C261.795 196.219 261.923 196.227 262.083 196.243C262.259 196.259 262.379 196.267 262.443 196.267Z" fill="white"/>
<path d="M245.891 207.331C245.315 207.331 244.843 207.491 244.475 207.811C244.123 208.115 243.947 208.595 243.947 209.251C243.947 210.563 244.515 211.219 245.651 211.219C246.099 211.219 246.555 211.107 247.019 210.883C247.483 210.659 247.843 210.395 248.099 210.091C248.179 209.083 248.219 208.443 248.219 208.171C247.563 207.611 246.787 207.331 245.891 207.331ZM250.187 204.307L250.091 207.763C250.091 209.091 250.227 210.675 250.499 212.515C250.019 212.659 249.603 212.731 249.251 212.731C248.899 212.731 248.563 212.715 248.243 212.683L248.171 211.531C246.955 212.475 245.875 212.947 244.931 212.947C244.003 212.947 243.291 212.651 242.795 212.059C242.315 211.451 242.075 210.595 242.075 209.491C242.075 208.371 242.435 207.523 243.155 206.947C243.891 206.371 244.755 206.083 245.747 206.083C246.739 206.083 247.595 206.275 248.315 206.659C248.331 206.339 248.339 205.987 248.339 205.603C248.339 205.219 248.323 204.883 248.291 204.595C248.275 204.307 248.203 203.971 248.075 203.587C247.851 202.835 247.267 202.459 246.323 202.459C245.139 202.459 244.547 203.107 244.547 204.403L244.571 204.811C244.219 204.843 243.891 204.859 243.587 204.859C243.283 204.859 242.923 204.795 242.507 204.667C242.475 204.411 242.459 204.227 242.459 204.115C242.459 203.107 242.827 202.355 243.563 201.859C244.299 201.363 245.251 201.115 246.419 201.115C247.603 201.115 248.523 201.387 249.179 201.931C249.851 202.459 250.187 203.251 250.187 204.307Z" fill="white"/>
<path d="M236.371 202.699C236.739 202.283 237.171 201.939 237.667 201.667C238.163 201.379 238.651 201.235 239.131 201.235C239.611 201.235 240.003 201.499 240.307 202.027C240.611 202.555 240.763 203.195 240.763 203.947C240.763 204.219 240.747 204.451 240.715 204.643C240.427 204.787 240.131 204.859 239.827 204.859C239.539 204.859 239.187 204.827 238.771 204.763C238.803 204.507 238.819 204.339 238.819 204.259C238.819 203.379 238.499 202.939 237.859 202.939C237.683 202.939 237.443 203.051 237.139 203.275C236.835 203.499 236.547 203.779 236.275 204.115C236.243 204.627 236.227 205.403 236.227 206.443C236.227 209.067 236.371 211.067 236.659 212.443C236.083 212.603 235.595 212.683 235.195 212.683C234.795 212.683 234.435 212.667 234.115 212.635C234.355 210.459 234.475 208.555 234.475 206.923C234.475 205.291 234.315 203.515 233.995 201.595C234.635 201.435 235.139 201.355 235.507 201.355C235.875 201.355 236.163 201.387 236.371 201.451V202.699Z" fill="white"/>
<path d="M227.72 198.811C227.64 200.059 227.6 202.443 227.6 205.963C227.6 209.483 227.736 211.675 228.008 212.539C227.48 212.699 226.992 212.779 226.544 212.779C226.096 212.779 225.736 212.763 225.464 212.731C225.688 210.859 225.8 208.411 225.8 205.387C225.8 202.347 225.744 200.155 225.632 198.811C223.44 198.907 222.024 199.019 221.384 199.147C221.32 198.923 221.288 198.619 221.288 198.235C221.288 197.851 221.352 197.451 221.48 197.035C222.664 197.179 224.096 197.251 225.776 197.251C229.168 197.251 231.264 197.139 232.064 196.915C232.128 197.203 232.16 197.523 232.16 197.875C232.16 198.227 232.096 198.611 231.968 199.027C230.736 198.915 229.32 198.843 227.72 198.811Z" fill="white"/>
<path d="M211.27 212.635C211.51 210.555 211.63 208.091 211.63 205.243C211.63 202.379 211.606 200.483 211.558 199.555C211.51 198.627 211.39 197.595 211.198 196.459C211.614 196.299 212.03 196.219 212.446 196.219C212.862 196.219 213.294 196.235 213.742 196.267C213.502 198.235 213.382 201.179 213.382 205.099C213.382 209.019 213.526 211.467 213.814 212.443C213.286 212.603 212.798 212.683 212.35 212.683C211.902 212.683 211.542 212.667 211.27 212.635Z" fill="white"/>
<path d="M207.882 206.683C206.682 207.067 205.482 207.259 204.282 207.259C203.098 207.259 202.21 207.219 201.618 207.139C201.618 208.579 201.85 209.627 202.314 210.283C202.746 210.907 203.418 211.219 204.33 211.219C205.242 211.219 206.234 210.723 207.306 209.731C207.77 210.211 208.066 210.843 208.194 211.627C206.898 212.507 205.546 212.947 204.138 212.947C202.458 212.947 201.29 212.403 200.634 211.315C199.978 210.211 199.65 208.755 199.65 206.947C199.65 205.139 200.01 203.715 200.73 202.675C201.466 201.635 202.658 201.115 204.306 201.115C205.458 201.115 206.378 201.467 207.066 202.171C207.77 202.859 208.122 203.683 208.122 204.643C208.138 205.587 208.058 206.267 207.882 206.683ZM204.138 202.459C202.666 202.459 201.834 203.555 201.642 205.747C202.33 205.827 203.106 205.867 203.97 205.867C204.85 205.867 205.538 205.787 206.034 205.627C206.098 205.051 206.13 204.755 206.13 204.739C206.13 204.115 205.97 203.579 205.65 203.131C205.33 202.683 204.826 202.459 204.138 202.459Z" fill="white"/>
<path d="M197.054 206.683C195.854 207.067 194.654 207.259 193.454 207.259C192.27 207.259 191.382 207.219 190.79 207.139C190.79 208.579 191.022 209.627 191.486 210.283C191.918 210.907 192.59 211.219 193.502 211.219C194.414 211.219 195.406 210.723 196.478 209.731C196.942 210.211 197.238 210.843 197.366 211.627C196.07 212.507 194.718 212.947 193.31 212.947C191.63 212.947 190.462 212.403 189.806 211.315C189.15 210.211 188.822 208.755 188.822 206.947C188.822 205.139 189.182 203.715 189.902 202.675C190.638 201.635 191.83 201.115 193.478 201.115C194.63 201.115 195.55 201.467 196.238 202.171C196.942 202.859 197.294 203.683 197.294 204.643C197.31 205.587 197.23 206.267 197.054 206.683ZM193.31 202.459C191.838 202.459 191.006 203.555 190.814 205.747C191.502 205.827 192.278 205.867 193.142 205.867C194.022 205.867 194.71 205.787 195.206 205.627C195.27 205.051 195.302 204.755 195.302 204.739C195.302 204.115 195.142 203.579 194.822 203.131C194.502 202.683 193.998 202.459 193.31 202.459Z" fill="white"/>
<path d="M182.183 208.699C182.183 208.699 182.199 206.915 182.231 203.347C182.231 203.107 182.223 202.923 182.207 202.795C181.535 202.795 181.055 202.803 180.767 202.819C180.671 202.563 180.623 202.315 180.623 202.075C180.623 201.819 180.639 201.627 180.671 201.499H182.135L182.015 199.723C182.415 199.595 182.831 199.531 183.263 199.531C183.711 199.531 184.079 199.563 184.367 199.627L184.151 201.475C185.031 201.459 185.919 201.411 186.815 201.331C186.911 201.539 186.959 201.771 186.959 202.027C186.959 202.267 186.927 202.563 186.863 202.915C186.271 202.883 185.335 202.851 184.055 202.819C184.023 203.139 184.007 203.611 184.007 204.235V209.107C184.007 209.523 184.023 209.867 184.055 210.139C184.103 210.395 184.207 210.635 184.367 210.859C184.543 211.067 184.791 211.171 185.111 211.171C185.815 211.171 186.487 210.923 187.127 210.427C187.463 210.907 187.631 211.555 187.631 212.371C186.751 212.755 185.983 212.947 185.327 212.947C184.687 212.947 184.175 212.859 183.791 212.683C183.407 212.523 183.111 212.331 182.903 212.107C182.695 211.867 182.535 211.539 182.423 211.123C182.263 210.531 182.183 209.723 182.183 208.699Z" fill="white"/>
<path d="M171.297 209.227C171.777 209.899 172.361 210.435 173.049 210.835C173.753 211.219 174.513 211.411 175.329 211.411C176.145 211.411 176.761 211.187 177.177 210.739C177.609 210.291 177.825 209.747 177.825 209.107C177.825 208.467 177.569 207.891 177.057 207.379C176.545 206.867 175.921 206.427 175.185 206.059C174.465 205.691 173.745 205.307 173.025 204.907C172.305 204.491 171.689 203.939 171.177 203.251C170.665 202.563 170.409 201.699 170.409 200.659C170.409 199.619 170.777 198.731 171.513 197.995C172.265 197.243 173.433 196.867 175.017 196.867C176.601 196.867 177.761 197.259 178.497 198.043C179.249 198.827 179.625 199.851 179.625 201.115C179.625 201.307 179.601 201.507 179.553 201.715C179.137 201.859 178.721 201.931 178.305 201.931C177.889 201.931 177.585 201.915 177.393 201.883C177.409 201.755 177.417 201.587 177.417 201.379C177.417 200.451 177.169 199.707 176.673 199.147C176.193 198.571 175.585 198.283 174.849 198.283C174.113 198.283 173.529 198.483 173.097 198.883C172.681 199.267 172.473 199.819 172.473 200.539C172.473 201.243 172.721 201.859 173.217 202.387C173.729 202.899 174.345 203.347 175.065 203.731C175.801 204.115 176.529 204.523 177.249 204.955C177.985 205.371 178.601 205.939 179.097 206.659C179.609 207.363 179.865 208.243 179.865 209.299C179.865 210.339 179.433 211.211 178.569 211.915C177.721 212.603 176.673 212.947 175.425 212.947C173.169 212.947 171.393 212.339 170.097 211.123C170.161 210.739 170.289 210.387 170.481 210.067C170.689 209.747 170.881 209.531 171.057 209.419L171.297 209.227Z" fill="white"/>
<path d="M157.855 208.699C157.855 208.699 157.871 206.915 157.903 203.347C157.903 203.107 157.895 202.923 157.879 202.795C157.207 202.795 156.727 202.803 156.439 202.819C156.343 202.563 156.295 202.315 156.295 202.075C156.295 201.819 156.311 201.627 156.343 201.499H157.807L157.687 199.723C158.087 199.595 158.503 199.531 158.935 199.531C159.383 199.531 159.751 199.563 160.039 199.627L159.823 201.475C160.703 201.459 161.591 201.411 162.487 201.331C162.583 201.539 162.631 201.771 162.631 202.027C162.631 202.267 162.599 202.563 162.535 202.915C161.943 202.883 161.007 202.851 159.727 202.819C159.695 203.139 159.679 203.611 159.679 204.235V209.107C159.679 209.523 159.695 209.867 159.727 210.139C159.775 210.395 159.879 210.635 160.039 210.859C160.215 211.067 160.463 211.171 160.783 211.171C161.487 211.171 162.159 210.923 162.799 210.427C163.135 210.907 163.303 211.555 163.303 212.371C162.423 212.755 161.655 212.947 160.999 212.947C160.359 212.947 159.847 212.859 159.463 212.683C159.079 212.523 158.783 212.331 158.575 212.107C158.367 211.867 158.207 211.539 158.095 211.123C157.935 210.531 157.855 209.723 157.855 208.699Z" fill="white"/>
<path d="M155.039 209.563C155.039 210.699 154.671 211.547 153.935 212.107C153.199 212.667 152.279 212.947 151.175 212.947C149.639 212.947 148.295 212.507 147.143 211.627C147.207 211.275 147.327 210.931 147.503 210.595C147.695 210.243 147.863 209.979 148.007 209.803L148.247 209.563C149.079 210.747 150.071 211.339 151.223 211.339C151.783 211.339 152.239 211.219 152.591 210.979C152.959 210.739 153.143 210.411 153.143 209.995C153.143 209.563 152.943 209.179 152.543 208.843C152.159 208.507 151.687 208.227 151.127 208.003C150.567 207.763 150.007 207.515 149.447 207.259C148.887 206.987 148.407 206.603 148.007 206.107C147.623 205.611 147.431 205.019 147.431 204.331C147.431 203.339 147.751 202.555 148.391 201.979C149.031 201.403 149.991 201.115 151.271 201.115C152.567 201.115 153.495 201.395 154.055 201.955C154.631 202.515 154.919 203.395 154.919 204.595C154.567 204.723 154.239 204.787 153.935 204.787C153.631 204.787 153.255 204.739 152.807 204.643C152.839 204.419 152.855 204.243 152.855 204.115C152.855 203.619 152.711 203.211 152.423 202.891C152.135 202.555 151.719 202.387 151.175 202.387C150.647 202.387 150.207 202.515 149.855 202.771C149.503 203.011 149.327 203.387 149.327 203.899C149.327 204.395 149.519 204.827 149.903 205.195C150.303 205.563 150.783 205.867 151.343 206.107C151.903 206.331 152.463 206.571 153.023 206.827C153.583 207.067 154.055 207.419 154.439 207.883C154.839 208.331 155.039 208.891 155.039 209.563Z" fill="white"/>
<path d="M144.859 206.683C143.659 207.067 142.459 207.259 141.259 207.259C140.075 207.259 139.187 207.219 138.595 207.139C138.595 208.579 138.827 209.627 139.291 210.283C139.723 210.907 140.395 211.219 141.307 211.219C142.219 211.219 143.211 210.723 144.283 209.731C144.747 210.211 145.043 210.843 145.171 211.627C143.875 212.507 142.523 212.947 141.115 212.947C139.435 212.947 138.267 212.403 137.611 211.315C136.955 210.211 136.627 208.755 136.627 206.947C136.627 205.139 136.987 203.715 137.707 202.675C138.443 201.635 139.635 201.115 141.283 201.115C142.435 201.115 143.355 201.467 144.043 202.171C144.747 202.859 145.099 203.683 145.099 204.643C145.115 205.587 145.035 206.267 144.859 206.683ZM141.115 202.459C139.643 202.459 138.811 203.555 138.619 205.747C139.307 205.827 140.083 205.867 140.947 205.867C141.827 205.867 142.515 205.787 143.011 205.627C143.075 205.051 143.107 204.755 143.107 204.739C143.107 204.115 142.947 203.579 142.627 203.131C142.307 202.683 141.803 202.459 141.115 202.459Z" fill="white"/>
<path d="M124.214 212.275C124.438 210.403 124.55 207.867 124.55 204.667C124.55 201.451 124.414 199.075 124.142 197.539C125.406 197.091 126.886 196.867 128.582 196.867C130.294 196.867 131.55 197.251 132.35 198.019C133.15 198.787 133.55 199.915 133.55 201.403C133.55 202.875 133.038 203.995 132.014 204.763C133.726 205.435 134.582 206.659 134.582 208.435C134.582 211.443 132.75 212.947 129.086 212.947C127.15 212.947 125.526 212.723 124.214 212.275ZM127.742 203.659C128.094 203.899 128.63 204.019 129.35 204.019C130.086 204.019 130.622 203.771 130.958 203.275C131.294 202.763 131.462 202.091 131.462 201.259C131.462 200.427 131.23 199.715 130.766 199.123C130.318 198.531 129.566 198.235 128.51 198.235C127.918 198.235 127.262 198.379 126.542 198.667C126.414 199.963 126.35 201.875 126.35 204.403C126.35 206.931 126.414 209.043 126.542 210.739C127.47 211.107 128.326 211.291 129.11 211.291C131.366 211.291 132.494 210.339 132.494 208.435C132.494 206.819 131.75 205.843 130.262 205.507C129.83 205.587 129.374 205.627 128.894 205.627C128.414 205.627 127.862 205.507 127.238 205.267C127.238 204.531 127.406 203.995 127.742 203.659Z" fill="white"/>
<path d="M114.695 206.683C113.495 207.067 112.295 207.259 111.095 207.259C109.911 207.259 109.023 207.219 108.431 207.139C108.431 208.579 108.663 209.627 109.127 210.283C109.559 210.907 110.231 211.219 111.143 211.219C112.055 211.219 113.047 210.723 114.119 209.731C114.583 210.211 114.879 210.843 115.007 211.627C113.711 212.507 112.359 212.947 110.951 212.947C109.271 212.947 108.103 212.403 107.447 211.315C106.791 210.211 106.463 208.755 106.463 206.947C106.463 205.139 106.823 203.715 107.543 202.675C108.279 201.635 109.471 201.115 111.119 201.115C112.271 201.115 113.191 201.467 113.879 202.171C114.583 202.859 114.935 203.683 114.935 204.643C114.951 205.587 114.871 206.267 114.695 206.683ZM110.951 202.459C109.479 202.459 108.647 203.555 108.455 205.747C109.143 205.827 109.919 205.867 110.783 205.867C111.663 205.867 112.351 205.787 112.847 205.627C112.911 205.051 112.943 204.755 112.943 204.739C112.943 204.115 112.783 203.579 112.463 203.131C112.143 202.683 111.639 202.459 110.951 202.459Z" fill="white"/>
<path d="M103.218 204.571L103.194 206.515C103.194 208.611 103.354 210.563 103.674 212.371C103.146 212.579 102.626 212.683 102.114 212.683C101.618 212.683 101.274 212.667 101.082 212.635C101.274 210.459 101.37 208.539 101.37 206.875C101.37 205.211 101.234 204.091 100.962 203.515C100.706 202.939 100.258 202.651 99.618 202.651C98.754 202.651 97.794 203.179 96.738 204.235C96.738 208.763 96.882 211.499 97.17 212.443C96.642 212.603 96.218 212.683 95.898 212.683C95.594 212.683 95.17 212.667 94.626 212.635C94.866 210.555 94.986 208.091 94.986 205.243C94.986 202.379 94.962 200.483 94.914 199.555C94.866 198.627 94.746 197.595 94.554 196.459C94.97 196.299 95.386 196.219 95.802 196.219C96.218 196.219 96.65 196.235 97.098 196.267C96.858 198.187 96.738 200.371 96.738 202.819C97.218 202.307 97.794 201.899 98.466 201.595C99.138 201.275 99.77 201.115 100.362 201.115C101.338 201.115 102.058 201.395 102.522 201.955C102.986 202.515 103.218 203.387 103.218 204.571Z" fill="white"/>
<path d="M87.7513 198.811C87.6713 200.059 87.6313 202.443 87.6313 205.963C87.6313 209.483 87.7673 211.675 88.0393 212.539C87.5113 212.699 87.0233 212.779 86.5753 212.779C86.1273 212.779 85.7673 212.763 85.4953 212.731C85.7193 210.859 85.8313 208.411 85.8313 205.387C85.8313 202.347 85.7753 200.155 85.6633 198.811C83.4713 198.907 82.0553 199.019 81.4153 199.147C81.3513 198.923 81.3193 198.619 81.3193 198.235C81.3193 197.851 81.3833 197.451 81.5113 197.035C82.6953 197.179 84.1273 197.251 85.8073 197.251C89.1993 197.251 91.2953 197.139 92.0953 196.915C92.1593 197.203 92.1913 197.523 92.1913 197.875C92.1913 198.227 92.1273 198.611 91.9993 199.027C90.7673 198.915 89.3513 198.843 87.7513 198.811Z" fill="white"/>
<defs>
<linearGradient id="paint0_linear_12_94" x1="410.594" y1="157.531" x2="430.375" y2="157.531" gradientUnits="userSpaceOnUse">
<stop stop-color="#FFD16E" stop-opacity="0.99"/>
<stop offset="1" stop-color="#997D42"/>
</linearGradient>
<linearGradient id="paint1_linear_12_94" x1="394.891" y1="154.109" x2="408.953" y2="154.109" gradientUnits="userSpaceOnUse">
<stop stop-color="#FFD16E" stop-opacity="0.99"/>
<stop offset="1" stop-color="#997D42"/>
</linearGradient>
<linearGradient id="paint2_linear_12_94" x1="374.031" y1="154.297" x2="392.828" y2="154.297" gradientUnits="userSpaceOnUse">
<stop stop-color="#FFD16E" stop-opacity="0.99"/>
<stop offset="1" stop-color="#997D42"/>
</linearGradient>
<linearGradient id="paint3_linear_12_94" x1="351.109" y1="157.531" x2="370.281" y2="157.531" gradientUnits="userSpaceOnUse">
<stop stop-color="#FFD16E" stop-opacity="0.99"/>
<stop offset="1" stop-color="#997D42"/>
</linearGradient>
<linearGradient id="paint4_linear_12_94" x1="318.672" y1="154.484" x2="347.359" y2="154.484" gradientUnits="userSpaceOnUse">
<stop stop-color="#FFD16E" stop-opacity="0.99"/>
<stop offset="1" stop-color="#997D42"/>
</linearGradient>
<linearGradient id="paint5_linear_12_94" x1="285.719" y1="154.297" x2="304.516" y2="154.297" gradientUnits="userSpaceOnUse">
<stop stop-color="#FFD16E" stop-opacity="0.99"/>
<stop offset="1" stop-color="#997D42"/>
</linearGradient>
<linearGradient id="paint6_linear_12_94" x1="263.312" y1="161.82" x2="282.016" y2="161.82" gradientUnits="userSpaceOnUse">
<stop stop-color="#FFD16E" stop-opacity="0.99"/>
<stop offset="1" stop-color="#997D42"/>
</linearGradient>
<linearGradient id="paint7_linear_12_94" x1="241.328" y1="157.508" x2="260.594" y2="157.508" gradientUnits="userSpaceOnUse">
<stop stop-color="#FFD16E" stop-opacity="0.99"/>
<stop offset="1" stop-color="#997D42"/>
</linearGradient>
<linearGradient id="paint8_linear_12_94" x1="230.406" y1="153.945" x2="237.203" y2="153.945" gradientUnits="userSpaceOnUse">
<stop stop-color="#FFD16E" stop-opacity="0.99"/>
<stop offset="1" stop-color="#997D42"/>
</linearGradient>
<linearGradient id="paint9_linear_12_94" x1="206.453" y1="154.555" x2="227.125" y2="154.555" gradientUnits="userSpaceOnUse">
<stop stop-color="#FFD16E" stop-opacity="0.99"/>
<stop offset="1" stop-color="#997D42"/>
</linearGradient>
<linearGradient id="paint10_linear_12_94" x1="180.203" y1="154.109" x2="194.266" y2="154.109" gradientUnits="userSpaceOnUse">
<stop stop-color="#FFD16E" stop-opacity="0.99"/>
<stop offset="1" stop-color="#997D42"/>
</linearGradient>
<linearGradient id="paint11_linear_12_94" x1="158.594" y1="157.531" x2="177.766" y2="157.531" gradientUnits="userSpaceOnUse">
<stop stop-color="#FFD16E" stop-opacity="0.99"/>
<stop offset="1" stop-color="#997D42"/>
</linearGradient>
<linearGradient id="paint12_linear_12_94" x1="135.859" y1="157.531" x2="155.031" y2="157.531" gradientUnits="userSpaceOnUse">
<stop stop-color="#FFD16E" stop-opacity="0.99"/>
<stop offset="1" stop-color="#997D42"/>
</linearGradient>
<linearGradient id="paint13_linear_12_94" x1="119.125" y1="157.414" x2="133.609" y2="157.414" gradientUnits="userSpaceOnUse">
<stop stop-color="#FFD16E" stop-opacity="0.99"/>
<stop offset="1" stop-color="#997D42"/>
</linearGradient>
<linearGradient id="paint14_linear_12_94" x1="96.4375" y1="162.195" x2="115.047" y2="162.195" gradientUnits="userSpaceOnUse">
<stop stop-color="#FFD16E" stop-opacity="0.99"/>
<stop offset="1" stop-color="#997D42"/>
</linearGradient>
<linearGradient id="paint15_linear_12_94" x1="73.5625" y1="157.508" x2="92.8281" y2="157.508" gradientUnits="userSpaceOnUse">
<stop stop-color="#FFD16E" stop-opacity="0.99"/>
<stop offset="1" stop-color="#997D42"/>
</linearGradient>
<linearGradient id="paint16_linear_12_94" x1="50.8281" y1="157.531" x2="70.6094" y2="157.531" gradientUnits="userSpaceOnUse">
<stop stop-color="#FFD16E" stop-opacity="0.99"/>
<stop offset="1" stop-color="#997D42"/>
</linearGradient>
<linearGradient id="paint17_linear_12_94" x1="19" y1="154.484" x2="47.6875" y2="154.484" gradientUnits="userSpaceOnUse">
<stop stop-color="#FFD16E" stop-opacity="0.99"/>
<stop offset="1" stop-color="#997D42"/>
</linearGradient>
</defs>
</svg>
